# xmcd CD database file
#
# Track frame offsets:
#	150
#	16863
#	32316
#	46149
#	62975
#	78100
#	92281
#	103839
#	120097
#	132323
#
# Disc length: 1932 seconds
#
# Revision: 0
# Processed by: cddbd v1.5.1PL0 Copyright (c) Steve Scherf et al.
# Submitted via: CDex 1.51
#
DISCID=67078a0a
DTITLE=Uducha - Pangea
DYEAR=1900
DGENRE=Rhythmic Soul
TTITLE0=Africa
TTITLE1=Pocomosso
TTITLE2=Sù!
TTITLE3=Parfois, je pense...
TTITLE4=Ram papapam
TTITLE5=Uduchà rmx
TTITLE6=Tatambakh
TTITLE7=Suono nero
TTITLE8=Etilario
TTITLE9=Bonne nuit Africa
EXTD=
EXTT0=
EXTT1=
EXTT2=
EXTT3=
EXTT4=
EXTT5=
EXTT6=
EXTT7=
EXTT8=
EXTT9=
PLAYORDER=
